# xmcd CD database file
#
# Track frame offsets:
#	150
#	23718
#	60675
#	106203
#	135299
#	171459
#	204631
#	262659
#
# Disc length: 4073 seconds
#
# Revision: 0
# Processed by: cddbd v1.5.2PL0 Copyright (c) Steve Scherf et al.
# Submitted via: CDex 1.70beta2
#
DISCID=640fe708
DTITLE=Various Artist - Jazz Roads CD391 - Bebop - Bebop Live Concerts Vol.2 (1946-47)
DYEAR=1900
DGENRE=Jazz
TTITLE0=Junior Jazz At The Auditorium - Ornithology
TTITLE1=Junior Jazz At The Auditorium - Hot House (What Is This Thing Called Love)
TTITLE2=Junior Jazz At The Auditorium - Allen's Alley
TTITLE3=Junior Jazz At The Auditorium - Lover
TTITLE4=Saturday Night Swing Session - High On An Open Mic
TTITLE5=Saturday Night Swing Session - Sweet Georgia Brown
TTITLE6=Just Jazz Concert - Just You, Just Me
TTITLE7=Just Jazz Concert - Perdido
EXTD=
EXTT0=
EXTT1=
EXTT2=
EXTT3=
EXTT4=
EXTT5=
EXTT6=
EXTT7=
PLAYORDER=
